<svg width="160" height="160" viewBox="0 0 160 160" fill="none" xmlns="http://www.w3.org/2000/svg">
<path fill-rule="evenodd" clip-rule="evenodd" d="M80 160C124.183 160 160 124.183 160 80C160 35.8172 124.183 0 80 0C35.8172 0 0 35.8172 0 80C0 124.183 35.8172 160 80 160ZM132.636 52.3175C136.138 58.482 138.409 65.1124 139.394 71.9345C140.461 79.195 140.05 86.6473 138.135 93.9078C136.165 101.552 132.581 108.867 127.437 115.361C122.102 122.128 115.207 127.854 106.944 131.991C106.178 132.375 105.412 132.731 104.618 133.087C103.825 133.443 103.032 133.772 102.239 134.1L102.238 134.101C101.445 134.43 100.624 134.731 99.8036 135.032L99.8028 135.032C98.982 135.334 98.1612 135.608 97.313 135.854C97.2972 135.87 97.2906 135.877 97.2825 135.88C97.2766 135.882 97.2699 135.882 97.2583 135.882L93.5098 121.717L87.4905 98.9765L86.9159 99.1409L86.3413 99.3052C86.1499 99.3326 85.9584 99.3874 85.767 99.4422L85.7668 99.4422C85.5752 99.4696 85.3837 99.5244 85.1922 99.5792L79.8295 100.922L82.9213 114.347L73.7007 116.676L71.1014 103.114L52.4415 107.826L51.0187 95.0311L59.3911 92.9215L53.5906 53.8517L46.6684 55.5778L45.7928 47.5776L59.8288 44.0706L57.8589 33.7689C53.6727 35.7142 49.8422 38.18 46.4495 41.0294C42.9747 43.9336 39.9103 47.3036 37.3931 51.0297C34.7665 54.8381 32.687 59.0574 31.2369 63.5507C29.7321 68.2084 28.9386 73.2222 29.0207 78.4279C29.0481 81.1951 29.349 83.9623 29.8963 86.6747C30.4435 89.4693 31.2643 92.1817 32.3587 94.812C33.4531 97.497 34.8485 100.1 36.4902 102.593C38.1865 105.141 40.1565 107.552 42.4001 109.771L47.2703 102.511L49.1582 123.142L30.2246 127.936L35.341 120.32C32.605 117.415 30.2246 114.319 28.1999 111.032C26.2299 107.853 24.643 104.511 23.3844 101.086C22.1532 97.7436 21.2776 94.3462 20.7304 90.8666C20.1832 87.4967 19.9643 84.0719 20.0464 80.6471C20.1559 77.1402 20.5389 73.7154 21.2503 70.4002C21.9343 67.1672 22.8919 64.0439 24.0958 61.0301C25.2723 58.0985 26.6677 55.2764 28.3093 52.564C29.8963 49.9338 31.7294 47.4132 33.7267 45.0295C35.341 43.1117 37.0648 41.3308 38.8706 39.6595C40.649 37.9882 42.5095 36.4539 44.4795 35.0566C46.4221 33.6593 48.4194 32.3716 50.4715 31.1935C52.5235 30.0428 54.6303 29.0016 56.8192 28.0701C57.0517 27.9742 57.2911 27.8783 57.5305 27.7824C57.7699 27.6865 58.0093 27.5906 58.2419 27.4947C58.3504 27.4525 58.4576 27.4103 58.564 27.3683C58.9406 27.2198 59.308 27.075 59.692 26.9468C60.1572 26.755 60.6497 26.5906 61.1422 26.4262C61.3884 26.344 61.6346 26.2687 61.8809 26.1933C62.1271 26.118 62.3734 26.0426 62.6196 25.9604L66.4501 42.4267L70.4721 41.413C70.5405 41.3993 70.6158 41.3787 70.691 41.3582C70.7663 41.3377 70.8415 41.3171 70.9099 41.3034C70.9783 41.2897 71.0535 41.2692 71.1288 41.2486C71.204 41.2281 71.2793 41.2075 71.3477 41.1938C71.4401 41.1784 71.5238 41.1543 71.6037 41.1313C71.6658 41.1134 71.7256 41.0962 71.7855 41.0842C71.9223 41.0294 72.0591 41.002 72.1959 40.9746H72.2232L70.3901 34.0977L76.7104 32.5086L78.8445 39.6047L78.8456 39.6046C79.2283 39.5498 79.611 39.4951 79.9663 39.4403L79.9665 39.4403C80.3221 39.3855 80.6777 39.3307 81.006 39.3033C81.3072 39.2531 81.6083 39.2259 81.8884 39.2006C81.9136 39.1983 81.9387 39.196 81.9636 39.1937C82.1601 39.158 82.3567 39.1455 82.5456 39.1336C82.646 39.1273 82.7442 39.1211 82.8392 39.1115C83.5505 39.0568 84.2346 39.0842 84.9459 39.1389C85.63 39.2211 86.3413 39.3307 87.0254 39.4951C87.7367 39.6595 88.4207 39.8787 89.1048 40.1527C89.7888 40.4267 90.4728 40.7554 91.1568 41.139C91.2115 41.1664 91.2663 41.2007 91.321 41.2349C91.3757 41.2691 91.4304 41.3034 91.4852 41.3308C91.5399 41.3582 91.5946 41.3924 91.6493 41.4267C91.704 41.4609 91.7588 41.4952 91.8135 41.5226C91.8682 41.55 91.9161 41.5842 91.964 41.6185C92.0118 41.6527 92.0597 41.687 92.1144 41.7144C92.1692 41.7555 92.217 41.7897 92.2649 41.824C92.3128 41.8582 92.3607 41.8925 92.4154 41.9336C92.9353 42.2897 93.4278 42.7007 93.8929 43.1117C94.358 43.55 94.7684 43.9884 95.1515 44.4816C95.5345 44.9748 95.8902 45.4953 96.1912 46.0433C96.4921 46.5912 96.7658 47.1666 97.012 47.7968C97.4771 49.0023 97.7507 50.153 97.8055 51.2763C97.8876 52.427 97.7234 53.523 97.3677 54.5915C97.012 55.66 96.4374 56.7012 95.644 57.6875C94.8505 58.7012 93.8108 59.6601 92.5796 60.5643C94.6316 60.7013 96.4922 61.0301 98.1885 61.5506C99.9122 62.0712 101.444 62.7835 102.812 63.6877C104.181 64.6192 105.412 65.7151 106.451 67.0303C107.491 68.3728 108.394 69.9071 109.105 71.6879C109.516 72.7291 109.844 73.7428 110.09 74.7565C110.337 75.7702 110.501 76.784 110.556 77.7977C110.61 78.8114 110.583 79.8252 110.446 80.8115C110.309 81.7978 110.09 82.7842 109.762 83.7705C109.434 84.7568 109.023 85.6884 108.558 86.5651C108.066 87.4419 107.519 88.2912 106.889 89.0857C106.26 89.8803 105.576 90.62 104.782 91.305C103.989 91.99 103.141 92.6201 102.211 93.1955C102.129 93.2442 102.047 93.2939 101.964 93.3443C101.626 93.5492 101.271 93.7647 100.897 93.9626C100.432 94.2366 99.9396 94.4832 99.4197 94.7298C98.9002 94.9762 98.3534 95.2226 97.8065 95.469L97.8055 95.4695C97.2591 95.6884 96.6581 95.9345 96.0571 96.1807L96.0544 96.1819L102.648 117.826C108.969 114.402 114.277 109.826 118.435 104.538C122.457 99.4148 125.33 93.6886 126.999 87.7158C128.614 82.017 129.106 76.1264 128.477 70.3728C127.902 64.8932 126.315 59.578 123.743 54.5915C122.457 52.0709 120.953 49.742 119.284 47.5776C117.669 45.4679 115.864 43.5226 113.921 41.7418C112.033 39.9883 109.981 38.4266 107.819 37.0019C105.713 35.6046 103.469 34.3991 101.116 33.3305L98.3253 37.7142L94.0297 27.4947L106.862 24.2892L104.646 27.7687C107.436 28.9194 110.145 30.2894 112.717 31.851C115.344 33.4401 117.833 35.2484 120.187 37.2485C122.594 39.3033 124.838 41.5774 126.89 44.0432C129.024 46.5912 130.939 49.3585 132.636 52.3175ZM68.2833 50.153L70.9373 61.6602L75.3697 60.6191C76.1358 60.4273 76.8198 60.2081 77.4765 59.9889C78.1058 59.7697 78.7077 59.5232 79.2276 59.2766C79.7474 59.0026 80.2125 58.7286 80.623 58.4546C81.0334 58.1533 81.3617 57.8793 81.6627 57.5505C81.9363 57.2217 82.1825 56.8929 82.3467 56.5094C82.5382 56.1258 82.6476 55.7148 82.7024 55.2764C82.7571 54.8381 82.7571 54.3723 82.7024 53.8791C82.6476 53.386 82.5382 52.8654 82.374 52.3175C82.2099 51.8243 82.0457 51.3859 81.8268 50.9749C81.6353 50.5914 81.3891 50.2352 81.1154 49.9338C80.8418 49.6324 80.5409 49.3585 80.2125 49.1667C79.8842 48.9749 79.5285 48.8105 79.1455 48.7009C78.7624 48.5913 78.3247 48.5091 77.8322 48.4817C77.3397 48.4543 76.7925 48.4543 76.1905 48.5091C75.5886 48.5365 74.9319 48.6187 74.2206 48.7557C73.621 48.8481 72.9825 48.9988 72.3052 49.1588C72.1789 49.1886 72.0513 49.2187 71.9223 49.2489L68.2833 50.153ZM91.7861 81.4143C91.9776 80.8937 92.0871 80.3183 92.1418 79.7156C92.1692 79.1128 92.1418 78.4553 92.0597 77.7977C91.9503 77.1128 91.7861 76.373 91.5399 75.6059C91.2663 74.8113 90.9927 74.0716 90.6643 73.4414C90.3634 72.8112 89.9803 72.2633 89.5973 71.7701C89.2142 71.277 88.7764 70.866 88.3113 70.5372C87.8462 70.2084 87.3537 69.9344 86.8065 69.7427C86.2866 69.5509 85.6847 69.4139 85.028 69.3317C84.3714 69.2495 83.6874 69.2221 82.9213 69.2495C82.1552 69.2769 81.3617 69.3591 80.4862 69.4961C79.6106 69.6331 78.7077 69.8249 77.7227 70.0714L73.1261 71.2222L77.1208 88.4556L82.1004 87.1953C83.2222 86.9213 84.2619 86.6199 85.1922 86.2911C86.1225 85.9624 86.9706 85.6062 87.7094 85.25C88.4481 84.8664 89.0774 84.5103 89.6246 84.0993C90.1718 83.6883 90.6096 83.2773 90.9653 82.839C91.321 82.428 91.5946 81.9348 91.7861 81.4143Z" fill="url(#paint0_linear_8_897)"/>
<defs>
<linearGradient id="paint0_linear_8_897" x1="80.0053" y1="0.0208002" x2="95.4065" y2="153.998" gradientUnits="userSpaceOnUse">
<stop stop-color="#64CCC9"/>
<stop offset="1" stop-color="#00A3E0"/>
<stop offset="1" stop-color="#00A3E0"/>
</linearGradient>
</defs>
</svg>
