<svg width="484" height="162" viewBox="0 0 484 162" fill="none" xmlns="http://www.w3.org/2000/svg">
<path fill-rule="evenodd" clip-rule="evenodd" d="M80.6667 162C125.218 162 161.333 125.735 161.333 81C161.333 36.2649 125.218 0 80.6667 0C36.1157 0 0 36.2649 0 81C0 125.735 36.1157 162 80.6667 162ZM133.741 52.9714C137.272 59.213 139.562 65.9263 140.555 72.8337C141.631 80.1849 141.217 87.7304 139.286 95.0816C137.3 102.821 133.686 110.228 128.499 116.803C123.119 123.654 116.167 129.452 107.835 133.641C107.063 134.029 106.29 134.39 105.49 134.751C104.69 135.111 103.89 135.444 103.09 135.777C102.29 136.11 101.462 136.415 100.635 136.72C99.8069 137.025 98.9792 137.303 98.1239 137.553C98.1116 137.565 98.1048 137.572 98.0986 137.576C98.0909 137.58 98.084 137.58 98.0688 137.58L94.2891 123.238L88.2196 100.214L87.6402 100.38L87.0609 100.547C86.8678 100.574 86.6746 100.63 86.4815 100.685C86.2884 100.713 86.0953 100.768 85.9022 100.824L80.4948 102.183L83.6123 115.776L74.3149 118.134L71.694 104.402L52.8785 109.174L51.4439 96.219L59.886 94.083L54.0372 54.5249L47.0573 56.2725L46.1744 48.1723L60.3274 44.6215L58.341 34.191C54.12 36.1606 50.2576 38.6572 46.8366 41.5423C43.3328 44.4828 40.2429 47.8949 37.7047 51.6676C35.0562 55.5235 32.9594 59.7956 31.4972 64.345C29.9799 69.061 29.1798 74.1375 29.2626 79.4082C29.2901 82.21 29.5936 85.0118 30.1454 87.7581C30.6972 90.5877 31.5248 93.334 32.6284 95.9971C33.7319 98.7157 35.139 101.351 36.7943 103.875C38.5048 106.455 40.4912 108.896 42.7534 111.143L47.6642 103.792L49.5678 124.681L30.4765 129.535L35.6355 121.824C32.8767 118.883 30.4765 115.748 28.4349 112.42C26.4485 109.202 24.8484 105.817 23.5793 102.35C22.3378 98.9653 21.455 95.5255 20.9032 92.0024C20.3514 88.5903 20.1307 85.1228 20.2135 81.6552C20.3238 78.1044 20.7101 74.6368 21.4274 71.2802C22.1171 68.0068 23.0827 64.8444 24.2966 61.7929C25.4829 58.8247 26.8899 55.9674 28.5453 53.2211C30.1454 50.558 31.9938 48.0058 34.0078 45.5924C35.6355 43.6505 37.3736 41.8474 39.1945 40.1552C40.9878 38.4631 42.8638 36.9096 44.8502 35.4948C46.809 34.08 48.8229 32.7762 50.8921 31.5834C52.9612 30.4183 55.0856 29.3641 57.2927 28.421C57.5272 28.3238 57.7687 28.2267 58.0101 28.1296C58.2515 28.0326 58.4928 27.9355 58.7273 27.8384C58.8367 27.7956 58.9447 27.7529 59.052 27.7104C59.4318 27.56 59.8023 27.4134 60.1895 27.2836C60.6585 27.0894 61.155 26.923 61.6516 26.7566L61.6517 26.7565C61.9 26.6733 62.1483 26.597 62.3965 26.5207C62.6449 26.4444 62.8932 26.3682 63.1415 26.2849L67.0039 42.957L71.0594 41.9306C71.1284 41.9168 71.2043 41.896 71.2801 41.8751C71.356 41.8543 71.4319 41.8335 71.5008 41.8197C71.5698 41.8058 71.6457 41.785 71.7216 41.7642C71.7974 41.7434 71.8733 41.7226 71.9423 41.7087C72.0354 41.6931 72.1199 41.6687 72.2005 41.6454C72.2631 41.6273 72.3234 41.6099 72.3837 41.5977C72.5216 41.5423 72.6596 41.5145 72.7975 41.4868H72.8251L70.9767 34.5239L77.3497 32.9149L79.5016 40.0998L79.5019 40.0997C79.888 40.0442 80.2742 39.9888 80.6327 39.9333C80.9914 39.8778 81.35 39.8223 81.6811 39.7946C81.9847 39.7437 82.2884 39.7162 82.5708 39.6905C82.5963 39.6882 82.6216 39.6859 82.6467 39.6836C82.8448 39.6474 83.043 39.6348 83.2334 39.6228C83.3347 39.6163 83.4338 39.61 83.5295 39.6004C84.2468 39.5449 84.9365 39.5727 85.6538 39.6282C86.3436 39.7114 87.0609 39.8223 87.7506 39.9888C88.4679 40.1552 89.1576 40.3772 89.8473 40.6546C90.537 40.932 91.2268 41.2649 91.9165 41.6532C91.9717 41.681 92.0268 41.7156 92.082 41.7503C92.1372 41.785 92.1924 41.8197 92.2476 41.8474C92.3027 41.8751 92.3579 41.9098 92.4131 41.9445C92.4683 41.9792 92.5234 42.0139 92.5786 42.0416C92.6338 42.0693 92.6821 42.104 92.7304 42.1387C92.7786 42.1734 92.8269 42.208 92.8821 42.2358C92.9373 42.2774 92.9855 42.3121 93.0338 42.3467C93.0821 42.3814 93.1304 42.4161 93.1856 42.4577C93.7098 42.8183 94.2064 43.2344 94.6754 43.6505C95.1444 44.0944 95.5582 44.5382 95.9444 45.0376C96.3307 45.5369 96.6893 46.064 96.9928 46.6188C97.2963 47.1736 97.5722 47.7562 97.8205 48.3942C98.2895 49.6148 98.5654 50.7799 98.6205 51.9173C98.7033 53.0824 98.5378 54.192 98.1791 55.2739C97.8205 56.3557 97.2411 57.4099 96.441 58.4086C95.641 59.435 94.5926 60.4059 93.3511 61.3213C95.4203 61.46 97.2963 61.7929 99.0068 62.32C100.745 62.847 102.29 63.5683 103.669 64.4837C105.049 65.4269 106.29 66.5366 107.339 67.8681C108.387 69.2274 109.297 70.7809 110.015 72.584C110.429 73.6381 110.76 74.6646 111.008 75.691C111.256 76.7174 111.422 77.7438 111.477 78.7702C111.532 79.7966 111.504 80.823 111.367 81.8216C111.229 82.8203 111.008 83.819 110.677 84.8176C110.346 85.8163 109.932 86.7595 109.463 87.6472C108.966 88.5349 108.415 89.3948 107.78 90.1993C107.145 91.0038 106.456 91.7528 105.656 92.4463C104.856 93.1398 104 93.7778 103.062 94.3604C102.981 94.4097 102.898 94.4601 102.814 94.5111C102.473 94.7185 102.114 94.9368 101.738 95.1371C101.269 95.4145 100.772 95.6642 100.248 95.9139C99.7244 96.1634 99.173 96.4129 98.6216 96.6624L98.6205 96.6628C98.0696 96.8844 97.4636 97.1337 96.8576 97.383L96.8549 97.3841L103.504 119.299C109.877 115.832 115.229 111.199 119.422 105.845C123.478 100.658 126.375 94.8597 128.058 88.8123C129.685 83.0422 130.182 77.078 129.547 71.2525C128.968 65.7043 127.368 60.3227 124.775 55.2739C123.478 52.7217 121.961 50.3638 120.278 48.1723C118.65 46.0362 116.829 44.0667 114.87 42.2635C112.967 40.4881 110.898 38.9069 108.718 37.4644C106.594 36.0496 104.331 34.829 101.959 33.7472L99.1447 38.1856L94.8133 27.8384L107.752 24.5928L105.518 28.1158C108.332 29.2809 111.063 30.6679 113.656 32.2492C116.305 33.8581 118.815 35.689 121.188 37.7141C123.616 39.7946 125.878 42.0971 127.947 44.5937C130.099 47.1736 132.03 49.9754 133.741 52.9714ZM68.8523 50.7799L71.5284 62.4309L75.9978 61.3768C76.7703 61.1826 77.46 60.9607 78.1221 60.7388C78.7567 60.5168 79.3636 60.2672 79.8878 60.0175C80.412 59.7401 80.881 59.4627 81.2948 59.1853C81.7087 58.8801 82.0397 58.6027 82.3432 58.2699C82.6191 57.937 82.8674 57.6041 83.0329 57.2157C83.226 56.8273 83.3364 56.4112 83.3916 55.9674C83.4468 55.5235 83.4468 55.0519 83.3916 54.5526C83.3364 54.0533 83.226 53.5262 83.0605 52.9714C82.895 52.4721 82.7294 52.0282 82.5087 51.6121C82.3156 51.2237 82.0673 50.8631 81.7914 50.558C81.5155 50.2528 81.2121 49.9754 80.881 49.7812C80.5499 49.587 80.1913 49.4206 79.805 49.3096C79.4188 49.1987 78.9774 49.1155 78.4808 49.0877C77.9842 49.06 77.4324 49.06 76.8255 49.1154C76.2185 49.1432 75.5564 49.2264 74.8391 49.3651C74.2345 49.4586 73.5908 49.6113 72.9079 49.7732C72.7805 49.8034 72.6518 49.8339 72.5216 49.8644L68.8523 50.7799ZM92.551 82.4319C92.7442 81.9049 92.8545 81.3223 92.9097 80.712C92.9373 80.1017 92.9097 79.4359 92.8269 78.7702C92.7166 78.0766 92.551 77.3277 92.3027 76.5509C92.0268 75.7464 91.751 74.9974 91.4199 74.3594C91.1164 73.7214 90.7302 73.1666 90.3439 72.6672C89.9577 72.1679 89.5163 71.7518 89.0473 71.4189C88.5783 71.086 88.0817 70.8086 87.5299 70.6144C87.0057 70.4202 86.3987 70.2815 85.7366 70.1983C85.0745 70.1151 84.3848 70.0873 83.6123 70.1151C82.8398 70.1428 82.0397 70.2261 81.1569 70.3648C80.2741 70.5035 79.3636 70.6976 78.3704 70.9473L73.7355 72.1124L77.7635 89.5613L82.7846 88.2852C83.9158 88.0078 84.9641 87.7026 85.9022 87.3698C86.8402 87.0369 87.6954 86.6762 88.4403 86.3156C89.1852 85.9272 89.8197 85.5666 90.3715 85.1505C90.9233 84.7344 91.3647 84.3183 91.7234 83.8744C92.082 83.4583 92.3579 82.959 92.551 82.4319Z" fill="white"/>
<path fill-rule="evenodd" clip-rule="evenodd" d="M188.052 113.127C193.985 118.154 201.992 120.667 212.071 120.667C222.079 120.667 230.014 118.154 235.876 113.127C241.809 108.1 244.776 101.206 244.776 92.4449V15.75L222.472 27.0603V91.0446C222.472 94.2761 221.507 96.8614 219.577 98.8003C217.719 100.739 215.217 101.709 212.071 101.709C208.926 101.709 206.388 100.775 204.458 98.908C202.599 96.9691 201.67 94.348 201.67 91.0446V52.374L179.259 43.218V92.4449C179.259 101.206 182.19 108.1 188.052 113.127ZM321.666 85.766C318.807 82.6781 315.018 80.8469 310.3 80.2724C314.732 79.4825 318.235 77.5436 320.809 74.4557C323.454 71.3678 324.776 67.454 324.776 62.7145C324.776 56.7541 322.631 52.0145 318.342 48.4957C314.053 44.977 308.227 43.2176 300.864 43.2176H264.192V118.62H301.722C309.156 118.62 315.054 116.753 319.415 113.019C323.775 109.213 325.956 104.15 325.956 97.8304C325.956 92.8754 324.526 88.8539 321.666 85.766ZM286.495 57.6517H293.572C296.36 57.6517 298.541 58.3699 300.113 59.8061C301.686 61.1705 302.472 63.0735 302.472 65.5151C302.472 68.0285 301.65 70.0034 300.006 71.4396C298.434 72.8758 296.289 73.5939 293.572 73.5939H286.495V57.6517ZM300.757 100.739C299.184 102.247 296.968 103.001 294.109 103.001H286.495V86.6278H294.216C296.932 86.6278 299.113 87.3818 300.757 88.8898C302.401 90.3261 303.223 92.265 303.223 94.7066C303.223 97.22 302.401 99.2307 300.757 100.739ZM453.869 120.991C444.075 120.991 436.355 118.621 430.707 113.881C425.131 109.07 422.343 102.427 422.343 93.9536H444.647C444.647 97.1851 445.469 99.7344 447.113 101.602C448.829 103.469 451.188 104.402 454.19 104.402C459.194 104.402 461.696 102.32 461.696 98.1546C461.696 96.4311 461.16 95.0667 460.088 94.0613C459.016 92.9841 457.193 91.9429 454.619 90.9375L439.715 85.4439C428.992 81.4224 423.63 74.3131 423.63 64.1158C423.63 57.0783 426.239 51.441 431.458 47.2042C436.748 42.9673 443.932 40.8488 453.011 40.8488C462.161 40.8488 469.453 43.0032 474.886 47.3119C480.39 51.6206 483.142 57.5091 483.142 64.9776H460.839C460.839 62.1769 460.124 60.0226 458.694 58.5145C457.336 56.9346 455.37 56.1447 452.796 56.1447C450.723 56.1447 449.079 56.6474 447.864 57.6528C446.649 58.6581 446.041 60.0585 446.041 61.8538C446.041 63.3618 446.649 64.6903 447.864 65.8393C449.079 66.9165 451.224 68.0296 454.298 69.1785L468.023 74.4567C478.674 78.6218 484 85.8748 484 96.2157C484 103.828 481.284 109.86 475.851 114.312C470.418 118.765 463.09 120.991 453.869 120.991ZM362.152 80.9203L336.416 43.2176H361.079L412.548 118.62H387.886L374.483 98.9854L361.08 118.621H336.418L362.152 80.9203ZM389.356 77.1951L412.549 43.2179H387.887L377.025 59.13L389.356 77.1951Z" fill="white"/>
</svg>
