<svg width="32" height="32" viewBox="0 0 32 32" fill="none" xmlns="http://www.w3.org/2000/svg">
<path fill-rule="evenodd" clip-rule="evenodd" d="M16 32C24.8366 32 32 24.8366 32 16C32 7.16344 24.8366 0 16 0C7.16344 0 0 7.16344 0 16C0 24.8366 7.16344 32 16 32ZM26.5271 10.4635C27.2276 11.6964 27.6818 13.0225 27.8788 14.3869C28.0922 15.839 28.0101 17.3295 27.627 18.7816C27.233 20.3104 26.5162 21.7734 25.4874 23.0721C24.4204 24.4256 23.0414 25.5708 21.3888 26.3982C21.2356 26.475 21.0824 26.5462 20.9237 26.6174C20.7651 26.6886 20.6064 26.7543 20.4478 26.8201L20.4476 26.8202C20.2889 26.8859 20.1247 26.9462 19.9606 27.0065C19.7964 27.0668 19.6322 27.1216 19.4626 27.1709C19.4571 27.1763 19.4571 27.1763 19.4517 27.1763L18.702 24.3434L17.4981 19.7953L17.3832 19.8282L17.2683 19.861C17.23 19.8665 17.1917 19.8775 17.1534 19.8884C17.1151 19.8939 17.0768 19.9049 17.0385 19.9158L15.9659 20.1843L16.5843 22.8694L14.7402 23.3351L14.2203 20.6227L10.4883 21.5652L10.2038 19.0062L11.8782 18.5843L10.7181 10.7703L9.33368 11.1156L9.15858 9.51551L11.9658 8.81412L11.5718 6.75378C10.7346 7.14283 9.96845 7.636 9.28991 8.20588C8.59494 8.78672 7.98207 9.46071 7.47863 10.2059C6.9533 10.9676 6.53742 11.8115 6.2474 12.7101C5.94643 13.6417 5.78774 14.6444 5.80416 15.6856C5.80963 16.239 5.86982 16.7925 5.97926 17.3349C6.08871 17.8939 6.25287 18.4363 6.47176 18.9624C6.69064 19.4994 6.96972 20.02 7.29805 20.5186C7.63732 21.0282 8.03131 21.5104 8.48003 21.9543L9.45407 20.5022L9.83165 24.6283L6.04493 25.5873L7.06822 24.0639C6.52101 23.4831 6.04493 22.8639 5.63999 22.2063C5.246 21.5707 4.92861 20.9022 4.6769 20.2172C4.43065 19.5487 4.25554 18.8692 4.1461 18.1733C4.03666 17.4993 3.99288 16.8144 4.00929 16.1294C4.03118 15.428 4.10779 14.7431 4.25007 14.08C4.38687 13.4334 4.5784 12.8088 4.81917 12.206C5.05447 11.6197 5.33355 11.0553 5.66188 10.5128C5.97926 9.98676 6.3459 9.48263 6.74536 9.0059C7.06822 8.62233 7.41296 8.26615 7.77413 7.9319C8.12981 7.59764 8.50192 7.29078 8.89591 7.01132C9.28443 6.73186 9.6839 6.47432 10.0943 6.23869C10.5047 6.00855 10.9261 5.80032 11.3638 5.61402C11.4104 5.59484 11.4582 5.57566 11.5061 5.55649C11.554 5.5373 11.6019 5.51812 11.6484 5.49894C11.6701 5.49049 11.6915 5.48204 11.7128 5.47365C11.7881 5.44395 11.8616 5.41499 11.9384 5.38935C12.0314 5.35099 12.1299 5.31812 12.2284 5.28524C12.2777 5.2688 12.3269 5.25373 12.3762 5.23866C12.4254 5.22359 12.4747 5.20852 12.5239 5.19208L13.29 8.48534L14.0944 8.28259C14.1081 8.27985 14.1232 8.27574 14.1382 8.27163C14.1533 8.26752 14.1683 8.26341 14.182 8.26067C14.1957 8.25793 14.2107 8.25382 14.2258 8.24971C14.2408 8.2456 14.2559 8.2415 14.2696 8.23876C14.288 8.23567 14.3048 8.23085 14.3208 8.22625C14.3332 8.22268 14.3451 8.21923 14.3571 8.21684C14.3845 8.20588 14.4118 8.2004 14.4392 8.19492L14.4392 8.19492H14.4447L14.078 6.81953L15.3421 6.50171L15.7689 7.92094C15.8455 7.90998 15.9221 7.89902 15.9933 7.88806C16.0644 7.8771 16.1355 7.86614 16.2012 7.86066C16.2614 7.85061 16.3217 7.84517 16.3777 7.84011C16.3827 7.83965 16.3878 7.8392 16.3927 7.83874C16.432 7.83159 16.4713 7.8291 16.5091 7.82672C16.5292 7.82545 16.5489 7.82421 16.5678 7.8223C16.7101 7.81135 16.8469 7.81683 16.9892 7.82778C17.126 7.84422 17.2683 7.86614 17.4051 7.89902C17.5474 7.9319 17.6842 7.97573 17.821 8.03053C17.9578 8.08533 18.0946 8.15108 18.2314 8.2278C18.2423 8.23328 18.2533 8.24012 18.2642 8.24697C18.2752 8.25382 18.2861 8.26067 18.297 8.26615C18.308 8.27163 18.3189 8.27848 18.3299 8.28533C18.3408 8.29218 18.3518 8.29903 18.3627 8.30451C18.3737 8.30999 18.3832 8.31684 18.3928 8.32369C18.4024 8.33054 18.412 8.33739 18.4229 8.34287C18.4339 8.35109 18.4434 8.35794 18.453 8.36479C18.4626 8.37164 18.4722 8.37849 18.4831 8.38671C18.5871 8.45794 18.6856 8.54014 18.7786 8.62233C18.8716 8.71 18.9537 8.79768 19.0303 8.89631C19.1069 8.99494 19.1781 9.09906 19.2383 9.20865C19.2984 9.31824 19.3532 9.43332 19.4024 9.55935C19.4954 9.80045 19.5502 10.0306 19.5611 10.2553C19.5775 10.4854 19.5447 10.7046 19.4736 10.9183C19.4024 11.132 19.2875 11.3402 19.1288 11.5375C18.9701 11.7402 18.7622 11.932 18.5159 12.1129C18.9263 12.1403 19.2984 12.206 19.6377 12.3101C19.9825 12.4142 20.2889 12.5567 20.5625 12.7375C20.8361 12.9238 21.0824 13.143 21.2903 13.406C21.4982 13.6745 21.6788 13.9814 21.8211 14.3376C21.9032 14.5458 21.9688 14.7486 22.0181 14.9513C22.0673 15.154 22.1002 15.3568 22.1111 15.5595C22.1221 15.7623 22.1166 15.965 22.0892 16.1623C22.0619 16.3596 22.0181 16.5568 21.9524 16.7541C21.8868 16.9514 21.8047 17.1377 21.7117 17.313C21.6132 17.4884 21.5037 17.6582 21.3779 17.8171C21.252 17.9761 21.1152 18.124 20.9565 18.261C20.7978 18.398 20.6282 18.524 20.4421 18.6391C20.4259 18.6488 20.4095 18.6588 20.3929 18.6688C20.3253 18.7098 20.2541 18.7529 20.1795 18.7925C20.0864 18.8473 19.9879 18.8966 19.884 18.9459C19.78 18.9953 19.6706 19.0446 19.5611 19.0939C19.4517 19.1377 19.3313 19.187 19.2109 19.2364L20.5297 23.5653C21.7937 22.8803 22.8553 21.9652 23.6871 20.9077C24.4915 19.883 25.0661 18.7377 25.3999 17.5432C25.7227 16.4034 25.8212 15.2253 25.6954 14.0746C25.5805 12.9786 25.2631 11.9156 24.7487 10.9183C24.4915 10.4142 24.1905 9.9484 23.8567 9.51551C23.5339 9.09358 23.1727 8.70452 22.7842 8.34835C22.4066 7.99765 21.9962 7.68531 21.5639 7.40037C21.1426 7.12091 20.6938 6.87981 20.2232 6.6661L19.6651 7.54284L18.806 5.49894L21.3724 4.85783L20.9291 5.55374C21.4873 5.78388 22.029 6.05787 22.5434 6.3702C23.0687 6.68802 23.5667 7.04968 24.0373 7.44969C24.5189 7.86066 24.9676 8.31547 25.378 8.80864C25.8048 9.31824 26.1879 9.87169 26.5271 10.4635ZM13.6567 10.0306L14.1875 12.332L15.074 12.1238C15.2272 12.0855 15.364 12.0416 15.4953 11.9978C15.6212 11.9539 15.7416 11.9046 15.8455 11.8553C15.9495 11.8005 16.0425 11.7457 16.1246 11.6909C16.2067 11.6306 16.2724 11.5758 16.3325 11.5101C16.3873 11.4443 16.4365 11.3786 16.4693 11.3019C16.5077 11.2252 16.5295 11.143 16.5405 11.0553C16.5514 10.9676 16.5514 10.8745 16.5405 10.7758C16.5295 10.6772 16.5077 10.5731 16.4748 10.4635C16.442 10.3649 16.4092 10.2772 16.3654 10.195C16.3271 10.1183 16.2778 10.047 16.2231 9.98676C16.1684 9.92648 16.1082 9.87169 16.0425 9.83333C15.9769 9.79497 15.9057 9.76209 15.8291 9.74017C15.7525 9.71826 15.6649 9.70182 15.5664 9.69634C15.4679 9.69086 15.3585 9.69086 15.2381 9.70182C15.1177 9.7073 14.9864 9.72374 14.8441 9.75113C14.7242 9.76961 14.5965 9.79976 14.4611 9.83175C14.4358 9.83771 14.4103 9.84374 14.3845 9.84977L13.6567 10.0306ZM18.3572 16.2828C18.3955 16.1787 18.4174 16.0637 18.4284 15.9431C18.4338 15.8226 18.4284 15.691 18.412 15.5595C18.3901 15.4225 18.3572 15.2746 18.308 15.1212C18.2533 14.9623 18.1985 14.8143 18.1329 14.6883C18.0727 14.5622 17.9961 14.4527 17.9195 14.354C17.8429 14.2554 17.7553 14.1732 17.6623 14.1074C17.5692 14.0417 17.4708 13.9869 17.3613 13.9485C17.2573 13.9102 17.1369 13.8828 17.0056 13.8663C16.8743 13.8499 16.7375 13.8444 16.5843 13.8499C16.431 13.8554 16.2724 13.8718 16.0972 13.8992C15.9221 13.9266 15.7416 13.965 15.5446 14.0143L14.6252 14.2444L15.4242 17.6911L16.4201 17.4391C16.6445 17.3843 16.8524 17.324 17.0385 17.2582C17.2245 17.1925 17.3941 17.1212 17.5419 17.05C17.6896 16.9733 17.8155 16.902 17.9249 16.8199C18.0344 16.7377 18.1219 16.6555 18.1931 16.5678C18.2642 16.4856 18.3189 16.387 18.3572 16.2828Z" fill="white"/>
</svg>
