<svg width="28" height="26" viewBox="0 0 28 26" fill="none" xmlns="http://www.w3.org/2000/svg">
<path d="M28 12.1894C28 18.9213 21.7315 24.3786 14 24.3786C12.6134 24.3805 11.2325 24.2013 9.89275 23.8458C8.87075 24.3612 6.524 25.3502 2.576 25.9945C2.226 26.0502 1.96 25.6881 2.09825 25.3642C2.71775 23.9084 3.27775 21.9686 3.44575 20.1994C1.302 18.0576 0 15.2541 0 12.1894C0 5.45751 6.2685 0.000244141 14 0.000244141C21.7315 0.000244141 28 5.45751 28 12.1894ZM12.5895 10.0406C12.4741 9.86933 12.341 9.71058 12.1923 9.567C11.9584 9.32735 11.6795 9.13567 11.3715 9.00282L11.3575 8.99585C10.9431 8.80438 10.4914 8.70571 10.0345 8.7068C8.358 8.7068 7 10.0058 7 11.6096C7 13.2116 8.358 14.5106 10.0345 14.5106C10.6348 14.5106 11.193 14.3452 11.6637 14.0578C11.424 14.7352 10.9812 15.4579 10.2463 16.1822C10.177 16.2495 10.1224 16.3301 10.0856 16.4192C10.0489 16.5082 10.0309 16.6038 10.0327 16.7001C10.0345 16.7963 10.0561 16.8912 10.0961 16.9788C10.1361 17.0664 10.1938 17.145 10.2655 17.2096C10.5683 17.4882 11.0478 17.4795 11.34 17.1922C13.6745 14.878 13.7375 12.3897 12.9867 10.7389C12.8765 10.4949 12.7435 10.2617 12.5895 10.0424V10.0406ZM19.25 14.0578C19.012 14.7352 18.5675 15.4579 17.8325 16.1822C17.7634 16.2496 17.7088 16.3303 17.6723 16.4194C17.6357 16.5086 17.6178 16.6042 17.6198 16.7004C17.6218 16.7967 17.6435 16.8915 17.6837 16.9791C17.7239 17.0667 17.7817 17.1451 17.8535 17.2096C18.1545 17.4882 18.634 17.4795 18.9262 17.1922C21.2607 14.878 21.3237 12.3897 20.5747 10.7389C20.4639 10.4949 20.3303 10.2617 20.1758 10.0424C20.0605 9.87045 19.9274 9.71111 19.7785 9.567C19.5447 9.32732 19.2658 9.13563 18.9578 9.00282L18.9438 8.99585C18.5298 8.80463 18.0788 8.70596 17.6225 8.7068C15.9477 8.7068 14.588 10.0058 14.588 11.6096C14.588 13.2116 15.9477 14.5106 17.6225 14.5106C18.2227 14.5106 18.781 14.3452 19.2518 14.0578H19.25Z" fill="white"/>
</svg>
