<svg width="26" height="26" viewBox="0 0 26 26" fill="none" xmlns="http://www.w3.org/2000/svg">
<path d="M25.7007 20.75C25.7007 21.3191 25.5011 21.8028 25.102 22.2012L22.1941 25.1036C21.795 25.502 21.3103 25.7012 20.7401 25.7012C20.17 25.7012 19.6853 25.502 19.2862 25.1036L13 18.8293L6.71382 25.1036C6.3147 25.502 5.83005 25.7012 5.25987 25.7012C4.6897 25.7012 4.20505 25.502 3.80593 25.1036L0.898031 22.2012C0.498908 21.8028 0.299347 21.3191 0.299347 20.75C0.299347 20.1809 0.498908 19.6971 0.898031 19.2988L7.18421 13.0244L0.898031 6.74998C0.498908 6.3516 0.299347 5.86786 0.299347 5.29876C0.299347 4.72965 0.498908 4.24591 0.898031 3.84754L3.80593 0.945096C4.20505 0.546721 4.6897 0.347534 5.25987 0.347534C5.83005 0.347534 6.3147 0.546721 6.71382 0.945096L13 7.21949L19.2862 0.945096C19.6853 0.546721 20.17 0.347534 20.7401 0.347534C21.3103 0.347534 21.795 0.546721 22.1941 0.945096L25.102 3.84754C25.5011 4.24591 25.7007 4.72965 25.7007 5.29876C25.7007 5.86786 25.5011 6.3516 25.102 6.74998L18.8158 13.0244L25.102 19.2988C25.5011 19.6971 25.7007 20.1809 25.7007 20.75Z" fill="white"/>
</svg>
