<svg width="42" height="42" viewBox="0 0 42 42" fill="none" xmlns="http://www.w3.org/2000/svg">
<g filter="url(#filter0_ii_148_1787)">
<rect x="1" y="1" width="40" height="40" rx="20" fill="#239EDA"/>
<path fill-rule="evenodd" clip-rule="evenodd" d="M31.6242 19.423L33.1719 20.9706L31.6242 22.5182V25.3467L34.5861 22.3848L36.0003 20.9706L34.5861 19.5564L31.6242 16.5945V19.423ZM22.5705 10.3693H25.3989L22.3851 7.35538L20.9708 5.94116L19.5566 7.35538L16.5428 10.3693H19.3712L20.9708 8.76959L22.5705 10.3693ZM10.3694 22.5701L8.76983 20.9706L10.3694 19.3711V16.5426L7.35562 19.5564L5.94141 20.9706L7.35562 22.3848L10.3694 25.3986V22.5701ZM19.4233 31.6241H16.5949L19.5566 34.5858L20.9708 36L22.3851 34.5858L25.3468 31.6241H22.5184L20.9708 33.1716L19.4233 31.6241Z" fill="white"/>
<rect x="0.5" y="0.5" width="41" height="41" rx="20.5" stroke="#239EDA"/>
</g>
<defs>
<filter id="filter0_ii_148_1787" x="0" y="-4" width="42" height="50" filterUnits="userSpaceOnUse" color-interpolation-filters="sRGB">
<feFlood flood-opacity="0" result="BackgroundImageFix"/>
<feBlend mode="normal" in="SourceGraphic" in2="BackgroundImageFix" result="shape"/>
<feColorMatrix in="SourceAlpha" type="matrix" values="0 0 0 0 0 0 0 0 0 0 0 0 0 0 0 0 0 0 127 0" result="hardAlpha"/>
<feOffset dy="4"/>
<feGaussianBlur stdDeviation="5.5"/>
<feComposite in2="hardAlpha" operator="arithmetic" k2="-1" k3="1"/>
<feColorMatrix type="matrix" values="0 0 0 0 0.3875 0 0 0 0 0.96325 0 0 0 0 1 0 0 0 1 0"/>
<feBlend mode="normal" in2="shape" result="effect1_innerShadow_148_1787"/>
<feColorMatrix in="SourceAlpha" type="matrix" values="0 0 0 0 0 0 0 0 0 0 0 0 0 0 0 0 0 0 127 0" result="hardAlpha"/>
<feOffset dy="-4"/>
<feGaussianBlur stdDeviation="5"/>
<feComposite in2="hardAlpha" operator="arithmetic" k2="-1" k3="1"/>
<feColorMatrix type="matrix" values="0 0 0 0 0 0 0 0 0 0.1045 0 0 0 0 0.475 0 0 0 0.5 0"/>
<feBlend mode="normal" in2="effect1_innerShadow_148_1787" result="effect2_innerShadow_148_1787"/>
</filter>
</defs>
</svg>
