<svg width="32" height="26" viewBox="0 0 32 26" fill="none" xmlns="http://www.w3.org/2000/svg">
<path d="M27.107 2.17755C25.0084 1.14692 22.7882 0.414622 20.5052 0C20.2209 0.53963 19.8886 1.26544 19.6595 1.84285C17.198 1.45436 14.7591 1.45436 12.3429 1.84285C12.1139 1.26557 11.7741 0.53963 11.4871 0C9.20186 0.414813 6.97981 1.14898 4.88024 2.18292C0.702241 8.80976 -0.430384 15.2718 0.135866 21.6424C2.90699 23.8145 5.59249 25.1339 8.23274 25.9974C8.88891 25.0503 9.46894 24.0475 9.96686 22.9996C9.0189 22.6208 8.10502 22.1539 7.23611 21.6046C7.46478 21.4267 7.68805 21.2413 7.90561 21.0487C13.1709 23.6337 18.8919 23.6337 24.0944 21.0487C24.3129 21.2401 24.5361 21.4254 24.7637 21.6046C23.8934 22.1554 22.9778 22.6231 22.028 23.0023C22.5287 24.0545 23.1077 25.0582 23.7621 26C26.4049 25.1367 29.0929 23.8172 31.864 21.6424C32.5285 14.2574 30.729 7.85449 27.107 2.17741V2.17755ZM10.6842 17.7246C9.10361 17.7246 7.80736 16.1758 7.80736 14.2898C7.80736 12.4038 9.07599 10.8523 10.6842 10.8523C12.2926 10.8523 13.5887 12.401 13.5611 14.2898C13.5636 16.1758 12.2926 17.7246 10.6842 17.7246ZM21.3156 17.7246C19.735 17.7246 18.4389 16.1758 18.4389 14.2898C18.4389 12.4038 19.7074 10.8523 21.3156 10.8523C22.924 10.8523 24.2201 12.401 24.1925 14.2898C24.1925 16.1758 22.924 17.7246 21.3156 17.7246V17.7246Z" fill="white"/>
</svg>
