<svg width="61" height="71" viewBox="0 0 61 71" fill="none" xmlns="http://www.w3.org/2000/svg">
<path d="M32.1213 52.5H44V19C44 18.1716 43.3284 17.5 42.5 17.5C41.6716 17.5 41 18.1716 41 19V49.5H32.1213L32.7426 48.8787C33.3284 48.2929 33.3284 47.3431 32.7426 46.7574C32.1569 46.1716 31.2071 46.1716 30.6213 46.7574L27.4393 49.9393C26.8536 50.5251 26.8536 51.4749 27.4393 52.0607L30.6213 55.2426C31.2071 55.8284 32.1569 55.8284 32.7426 55.2426C33.3284 54.6569 33.3284 53.7071 32.7426 53.1213L32.1213 52.5Z" fill="white"/>
<path fill-rule="evenodd" clip-rule="evenodd" d="M25 10C25 4.47715 29.4772 0 35 0H51C56.5228 0 61 4.47715 61 10V61C61 66.5229 56.5228 71 51 71H10C4.47715 71 0 66.5229 0 61V37C0 31.4772 4.47715 27 10 27H25V10ZM27 29H10C5.58172 29 2 32.5817 2 37V61C2 65.4183 5.58172 69 10 69H51C55.4183 69 59 65.4183 59 61V10C59 5.58172 55.4183 2 51 2H35C30.5817 2 27 5.58172 27 10V29Z" fill="white"/>
</svg>
