<?xml version="1.0"?><svg fill="#000000" xmlns="http://www.w3.org/2000/svg"  viewBox="0 0 50 50" width="50px" height="50px">    <path d="M 30.496094 5 C 28.016094 5 26 7.0170469 26 9.4980469 C 26 11.980047 28.016094 14 30.496094 14 C 32.979094 14 35 11.980047 35 9.4980469 C 35 7.0170469 32.979094 5 30.496094 5 z M 16.564453 15 C 16.542453 15 16.517187 15.003812 16.492188 15.007812 C 16.279188 15.007813 16.106594 15.0235 15.933594 15.0625 C 15.505594 15.1595 15.110156 15.370781 14.785156 15.675781 C 14.742156 15.700781 14.701969 15.731578 14.667969 15.767578 L 8.7460938 21.722656 C 8.7300937 21.738656 8.7180781 21.755437 8.7050781 21.773438 C 7.9600781 22.545437 7.7904375 23.659766 8.2734375 24.634766 C 8.6744375 25.444766 9.5235 25.978047 10.4375 25.998047 C 11.2015 26.014047 11.940641 25.680172 12.431641 25.076172 C 12.440641 25.067172 12.450938 25.057875 12.460938 25.046875 L 17.4375 20.033203 L 21.943359 20.597656 L 18.339844 29.972656 C 18.334844 29.988656 18.331125 30.004484 18.328125 30.021484 C 17.985125 30.877484 17.910328 31.795641 18.111328 32.681641 C 18.459328 34.213641 19.565313 35.429594 21.070312 35.933594 C 21.292313 36.008594 21.503672 36.004 21.763672 36 L 33.130859 36 L 42 37.845703 C 42.308 37.947703 42.628219 38 42.949219 38 C 44.242219 38 45.386875 37.175266 45.796875 35.947266 C 46.319875 34.378266 45.467438 32.675344 43.898438 32.152344 C 43.881438 32.146344 43.866609 32.142672 43.849609 32.138672 L 34.449219 30.152344 C 34.070219 30.026344 33.361469 30 33.355469 30 L 27.681641 30 L 30.853516 20.472656 C 30.865516 20.434656 30.871047 20.393563 30.873047 20.351562 C 31.026047 19.785563 31.042969 19.221781 30.917969 18.675781 C 30.599969 17.270781 30.060016 16.630344 28.666016 16.027344 L 25.820312 15.027344 C 25.766313 15.009344 25.711297 15 25.654297 15 L 16.564453 15 z M 42.435547 16.949219 C 41.954018 16.96051 41.470328 17.110531 41.048828 17.410156 L 36.429688 20.697266 L 32.923828 18.570312 C 33.039828 19.281312 33.017797 20.003563 32.841797 20.726562 C 32.821797 20.846563 32.792 20.970516 32.75 21.103516 L 31.912109 23.617188 L 35.552734 25.677734 C 35.576734 25.691734 35.604812 25.703891 35.632812 25.712891 C 35.999813 25.904891 36.400781 26 36.800781 26 C 37.309781 26 37.818141 25.846969 38.244141 25.542969 L 43.947266 21.484375 C 44.491266 21.097375 44.853844 20.521281 44.964844 19.863281 C 45.075844 19.204281 44.923156 18.542047 44.535156 17.998047 C 44.035781 17.296797 43.238096 16.9304 42.435547 16.949219 z M 16.714844 34.646484 L 14.46875 38 L 7 38 C 5.346 38 4 39.346 4 41 C 4 42.654 5.346 44 7 44 L 15.431641 44 C 16.888641 44 18.26175 43.290234 19.09375 42.115234 L 22.257812 38 L 21.779297 38 L 21.59375 38.001953 C 21.29075 38.001953 20.882594 37.981125 20.433594 37.828125 C 18.787594 37.276125 17.475844 36.132484 16.714844 34.646484 z"/></svg>