<svg width="26" height="20" viewBox="0 0 26 20" fill="none" xmlns="http://www.w3.org/2000/svg">
<path d="M20.7628 0.499984C20.1782 0.532138 19.6014 0.681215 19.0879 0.926753C17.7189 1.57957 16.5779 2.73614 15.7088 3.60624C15.6232 3.6747 15.553 3.76045 15.5028 3.85787C15.4526 3.95529 15.4235 4.06221 15.4174 4.17164C15.4113 4.28108 15.4284 4.39056 15.4675 4.49295C15.5066 4.59535 15.5668 4.68834 15.6443 4.76588C15.7217 4.84341 15.8147 4.90374 15.9171 4.94292C16.0194 4.9821 16.1289 4.99926 16.2383 4.99326C16.3478 4.98727 16.4547 4.95827 16.5522 4.90815C16.6496 4.85803 16.7354 4.78792 16.804 4.70239C17.6614 3.84496 18.743 2.84137 19.7582 2.35711C20.2659 2.11547 20.7248 2.00829 21.1584 2.05311C21.592 2.09793 22.0382 2.2626 22.5293 2.7527C23.3565 3.58091 23.4033 4.27855 23.0457 5.24998C22.6901 6.22142 21.8015 7.37896 20.7326 8.44686C19.7095 9.46993 18.9456 10.4229 18.6007 11.4313C18.425 11.9321 18.3947 12.4725 18.5133 12.9898C18.632 13.5071 18.8947 13.9802 19.2711 14.3544C20.072 15.1553 21.2305 15.3385 22.2847 14.9322C23.34 14.5269 24.3923 13.6782 25.5732 12.4963C25.6587 12.4278 25.7288 12.3419 25.779 12.2445C25.8291 12.147 25.8581 12.0401 25.8641 11.9306C25.8701 11.8212 25.8529 11.7117 25.8137 11.6094C25.7746 11.507 25.7142 11.4141 25.6367 11.3366C25.5592 11.2591 25.4662 11.1989 25.3638 11.1598C25.2614 11.1207 25.1519 11.1037 25.0425 11.1097C24.933 11.1158 24.8261 11.1449 24.7287 11.1951C24.6313 11.2453 24.5455 11.3155 24.4771 11.4011C23.3673 12.5109 22.4114 13.2115 21.7372 13.4706C21.0629 13.7308 20.795 13.686 20.3672 13.2582C19.9287 12.8198 19.8859 12.5255 20.0924 11.9185C20.3 11.3115 20.8895 10.4823 21.8287 9.54301C22.9736 8.39911 24.0103 7.15583 24.5082 5.79757C25.0052 4.44127 24.8278 2.85988 23.6245 1.65655C22.9288 0.959882 22.1396 0.58183 21.3416 0.499984C21.149 0.48438 20.9554 0.48438 20.7628 0.499984ZM10.3488 3.42306C8.79715 3.51454 7.33391 4.1759 6.23998 5.28019L5.20326 6.31691L9.13187 10.2445L10.1968 9.1786C10.0413 8.86695 9.98701 8.51445 10.0417 8.17044C10.0964 7.82643 10.2573 7.50813 10.5018 7.26009L11.5678 6.19511C11.8157 5.95063 12.1338 5.78979 12.4776 5.73511C12.8215 5.68042 13.1738 5.73463 13.4853 5.89014L14.6117 4.76378C13.3988 3.81899 11.8861 3.343 10.3508 3.42306H10.3488ZM15.7692 5.88916L14.5815 7.07691C14.6983 7.37509 14.7259 7.7008 14.6611 8.01442C14.5962 8.32803 14.4416 8.61604 14.2161 8.84342L13.1501 9.90839C12.9228 10.1337 12.635 10.2882 12.3216 10.3531C12.0082 10.4179 11.6827 10.3904 11.3846 10.2738L10.2582 11.4001L14.2161 15.3288L15.2518 14.293C17.5474 11.9974 17.7092 8.38937 15.7692 5.88916ZM12.7545 6.68132C12.5706 6.68626 12.3958 6.76282 12.2674 6.8947L11.2014 7.95968C11.0741 8.08986 11.0027 8.26474 11.0027 8.44686C11.0027 8.62897 11.0741 8.80385 11.2014 8.93403L11.4762 9.20783C11.6041 9.34059 11.7791 9.41761 11.9634 9.42219C12.1475 9.41719 12.3224 9.34024 12.4505 9.20783L13.5165 8.14286C13.6484 8.0146 13.7247 7.83964 13.7289 7.65568C13.7242 7.47164 13.6476 7.29677 13.5155 7.1685L13.2427 6.8947C13.1796 6.8287 13.104 6.7758 13.0204 6.73902C12.9369 6.70223 12.8468 6.6823 12.7555 6.68034L12.7545 6.68132ZM4.2591 7.26009L2.79757 8.69044C0.308078 11.1809 0.308078 15.243 2.79757 17.7335C3.38931 18.3253 4.09185 18.7949 4.86507 19.1152C5.63829 19.4355 6.46703 19.6004 7.30398 19.6004C8.14092 19.6004 8.96967 19.4355 9.74289 19.1152C10.5161 18.7949 11.2186 18.3253 11.8104 17.7335L13.2719 16.2719L4.2591 7.25911V7.26009Z" fill="#0CA6D7"/>
</svg>
