<svg width="18" height="18" viewBox="0 0 18 18" fill="none" xmlns="http://www.w3.org/2000/svg">
<path fill-rule="evenodd" clip-rule="evenodd" d="M15.5312 9.00002C15.5317 10.4175 15.0455 11.7922 14.1538 12.8942C13.2622 13.9962 12.0192 14.7586 10.6328 15.0539C9.24641 15.3492 7.80063 15.1595 6.53731 14.5166C5.27399 13.8736 4.26973 12.8164 3.6925 11.5218L1.77988 12.2986C2.53808 14.0359 3.8713 15.4591 5.55538 16.3291C7.23945 17.199 9.1717 17.4626 11.0273 17.0756C12.8828 16.6885 14.5486 15.6744 15.7444 14.2038C16.9403 12.7331 17.5933 10.8955 17.5938 9.00002C17.5938 7.27815 17.0552 5.59941 16.0532 4.19907C15.0513 2.79872 13.6363 1.74697 12.0066 1.1912C10.3769 0.635429 8.61414 0.603504 6.96537 1.0999C5.31661 1.59629 3.86448 2.59612 2.8125 3.95927V1.43752H0.75V6.93752L1.78125 7.96877H6.59375V5.90627H3.984C4.66477 4.72607 5.71605 3.80356 6.9747 3.2819C8.23334 2.76024 9.62898 2.6686 10.945 3.0212C12.2611 3.3738 13.424 4.15092 14.2532 5.23197C15.0825 6.31302 15.5317 7.63755 15.5312 9.00002V9.00002Z" fill="white"/>
</svg>
