<svg width="26" height="26" viewBox="0 0 26 26" fill="none" xmlns="http://www.w3.org/2000/svg">
<path d="M13 26C5.8201 26 0 20.1799 0 13C0 5.8201 5.8201 0 13 0C20.1799 0 26 5.8201 26 13C26 20.1799 20.1799 26 13 26ZM19.266 19.5988C20.9227 18.0224 21.9252 15.8801 22.0739 13.598C22.2226 11.316 21.5066 9.06169 20.0685 7.28363C18.6304 5.50557 16.5756 4.33416 14.3129 4.0025C12.0502 3.67084 9.74561 4.20326 7.85771 5.49381C5.96981 6.78435 4.63701 8.7384 4.12456 10.9671C3.6121 13.1958 3.95756 15.5357 5.09217 17.5212C6.22679 19.5068 8.06739 20.9923 10.2477 21.6823C12.428 22.3722 14.7881 22.2159 16.8584 21.2446L15.5909 18.9631C14.3077 19.5208 12.8787 19.6496 11.5164 19.3302C10.1541 19.0109 8.93129 18.2604 8.02962 17.1905C7.12794 16.1206 6.59559 14.7882 6.5117 13.3915C6.4278 11.9948 6.79683 10.6084 7.56394 9.43819C8.33105 8.26801 9.45528 7.3766 10.7695 6.89646C12.0838 6.41633 13.5179 6.37309 14.8587 6.77319C16.1994 7.17329 17.3753 7.99536 18.2115 9.11721C19.0477 10.2391 19.4996 11.6008 19.5 13H15.6L19.266 19.5988Z" fill="#2A3869"/>
</svg>
