<svg fill="#000000" xmlns="http://www.w3.org/2000/svg"  viewBox="0 0 48 48" width="24px" height="24px"><path d="M 33.998047 6 C 31.790047 6 30 7.7920469 30 9.9980469 C 30 12.208047 31.790047 14 33.998047 14 C 36.211047 14 38 12.208047 38 9.9980469 C 38 7.7920469 36.211047 6 33.998047 6 z M 17.435547 12.5 C 16.248955 12.5 15.1222 13.028751 14.363281 13.939453 L 9.9628906 19.21875 A 2.0010763 2.0010763 0 1 0 13.037109 21.78125 L 17.332031 16.625 L 22.378906 17.191406 L 17.792969 23.632812 C 17.301817 24.296979 17 25.109501 17 25.998047 C 17 27.458138 17.790049 28.722923 18.957031 29.421875 L 18.955078 29.425781 L 27.212891 33.851562 L 28.5 42.40625 L 28.5 42.5 A 2.0002 2.0002 0 1 0 32.5 42.5 L 32.5 31.5 A 2.0002 2.0002 0 0 0 31.550781 29.798828 L 25.699219 26.185547 L 29.175781 21.212891 L 30.6875 23.34375 L 30.705078 23.380859 A 2.0002 2.0002 0 0 0 32.5 24.5 L 39.5 24.5 A 2.0002 2.0002 0 1 0 39.5 20.5 L 33.746094 20.5 L 31.162109 15.236328 A 2.0002 2.0002 0 0 0 31.083984 15.091797 C 30.351058 13.863726 29.165918 13.115261 28.111328 12.802734 C 27.056738 12.490208 26.114364 12.5 25.427734 12.5 L 17.435547 12.5 z M 17.246094 30.814453 L 15.978516 33.724609 L 8.9414062 34.5 L 8.5 34.5 A 2.0002 2.0002 0 1 0 8.5 38.5 L 17.5 38.5 A 2.0002 2.0002 0 0 0 19.423828 37.130859 L 21.849609 33.085938 C 20.677609 32.606938 18.403094 31.404453 17.246094 30.814453 z"/></svg>