<svg width="32" height="32" viewBox="0 0 32 32" fill="none" xmlns="http://www.w3.org/2000/svg">
<path d="M17.7244 2.92023e-06C18.1948 2.92023e-06 18.6156 0.292803 18.774 0.731203L19.9036 3.8624C20.3084 3.9632 20.6556 4.064 20.95 4.1696C21.2716 4.2848 21.686 4.4592 22.198 4.6976L24.8284 3.3056C25.0431 3.19185 25.2889 3.15079 25.5289 3.18859C25.769 3.22638 25.9902 3.34098 26.1596 3.5152L28.4732 5.9072C28.7804 6.2256 28.8668 6.6912 28.694 7.0976L27.4604 9.9888C27.6652 10.3648 27.8284 10.6864 27.9532 10.9552C28.0876 11.248 28.254 11.6512 28.4524 12.1712L31.3276 13.4032C31.7596 13.5872 32.0268 14.0192 31.998 14.4816L31.7868 17.8016C31.7724 18.0173 31.6949 18.224 31.5641 18.3961C31.4333 18.5682 31.2548 18.698 31.0508 18.7696L28.3276 19.7376C28.2492 20.1136 28.1676 20.4352 28.0812 20.7072C27.9419 21.1273 27.7827 21.5405 27.6044 21.9456L28.9724 24.9696C29.069 25.1821 29.095 25.4199 29.0466 25.6482C28.9982 25.8765 28.878 26.0833 28.7036 26.2384L26.102 28.5616C25.9307 28.714 25.7169 28.8103 25.4893 28.8378C25.2616 28.8652 25.0311 28.8225 24.8284 28.7152L22.1468 27.2944C21.7273 27.5165 21.2944 27.7127 20.8508 27.8816L19.6796 28.32L18.6396 31.2C18.5625 31.4109 18.4235 31.5936 18.2408 31.7241C18.058 31.8546 17.8401 31.9268 17.6156 31.9312L14.5756 32C14.3451 32.0061 14.1185 31.9405 13.9268 31.8125C13.7351 31.6844 13.5878 31.5 13.5052 31.2848L12.2796 28.0416C11.8614 27.8987 11.4474 27.744 11.038 27.5776C10.7032 27.4327 10.3734 27.2763 10.0492 27.1088L7.00921 28.408C6.8089 28.4935 6.58807 28.5188 6.3736 28.4811C6.15912 28.4433 5.96026 28.344 5.80121 28.1952L3.55161 26.0848C3.38412 25.9284 3.27006 25.7232 3.22556 25.4984C3.18105 25.2736 3.20836 25.0405 3.30361 24.832L4.61081 21.984C4.43696 21.6467 4.27578 21.303 4.12761 20.9536C3.95465 20.526 3.79458 20.0932 3.64761 19.656L0.783611 18.784C0.550813 18.7136 0.347762 18.5684 0.205995 18.3708C0.0642276 18.1732 -0.00832264 17.9343 -0.000388612 17.6912L0.111611 14.6176C0.119584 14.4171 0.18223 14.2225 0.292776 14.055C0.403322 13.8875 0.557561 13.7534 0.738811 13.6672L3.74361 12.224C3.88281 11.7136 4.00441 11.3168 4.11161 11.0272C4.26256 10.6404 4.43018 10.2603 4.61401 9.888L3.31161 7.136C3.21277 6.92702 3.18276 6.69207 3.22588 6.46494C3.26901 6.23782 3.38305 6.03022 3.55161 5.872L5.79801 3.7504C5.95549 3.60188 6.15252 3.50202 6.36542 3.46285C6.57831 3.42368 6.79798 3.44686 6.99801 3.5296L10.0348 4.784C10.3708 4.56 10.6748 4.3792 10.95 4.2336C11.278 4.0592 11.7164 3.8768 12.2684 3.68L13.3244 0.734403C13.4025 0.518833 13.5452 0.332613 13.733 0.201173C13.9209 0.0697323 14.1447 -0.000522001 14.374 2.92023e-06H17.7244ZM16.038 11.2304C13.3708 11.2304 11.2092 13.3664 11.2092 16.0032C11.2092 18.64 13.3708 20.7776 16.038 20.7776C18.7036 20.7776 20.8652 18.64 20.8652 16.0032C20.8652 13.3664 18.7052 11.2304 16.038 11.2304Z" fill="white"/>
</svg>
