<svg width="26" height="26" viewBox="0 0 26 26" fill="none" xmlns="http://www.w3.org/2000/svg">
<path fill-rule="evenodd" clip-rule="evenodd" d="M9.04984 1.0179C9.11536 0.729218 9.27942 0.471043 9.51494 0.285986C9.75046 0.100929 10.0434 5.07491e-05 10.3453 0H15.6547C15.9566 5.07491e-05 16.2495 0.100929 16.4851 0.285986C16.7206 0.471043 16.8846 0.729218 16.9502 1.0179L17.5342 3.5932C18.0651 3.8402 18.5708 4.1262 19.0474 4.4512L21.6197 3.6582C21.9078 3.5695 22.2181 3.57963 22.4995 3.68693C22.7809 3.79423 23.0165 3.99228 23.1674 4.2484L25.8221 8.7516C25.9731 9.00776 26.0305 9.3067 25.9846 9.59907C25.9388 9.89143 25.7925 10.1597 25.5699 10.3597L23.5829 12.1446C23.6303 12.7139 23.6303 13.2861 23.5829 13.8554L25.5699 15.6403C25.7925 15.8403 25.9388 16.1086 25.9846 16.4009C26.0305 16.6933 25.9731 16.9922 25.8221 17.2484L23.1674 21.7516C23.0165 22.0077 22.7809 22.2058 22.4995 22.3131C22.2181 22.4204 21.9078 22.4305 21.6197 22.3418L19.0487 21.5488C18.5708 21.8738 18.0651 22.1598 17.5355 22.4068L16.9515 24.9808C16.8862 25.2699 16.722 25.5286 16.4862 25.7139C16.2504 25.8993 15.957 26.0002 15.6547 26H10.3453C10.0434 25.9999 9.75046 25.8991 9.51494 25.714C9.27942 25.529 9.11536 25.2708 9.04984 24.9821L8.46581 22.4068C7.93487 22.1598 7.42915 21.8738 6.95264 21.5488L4.38025 22.3418C4.09221 22.4305 3.78189 22.4204 3.50052 22.3131C3.21914 22.2058 2.98353 22.0077 2.83257 21.7516L0.177893 17.2484C0.0268598 16.9922 -0.0304636 16.6933 0.015388 16.4009C0.0612395 16.1086 0.207524 15.8403 0.430088 15.6403L2.41712 13.8554C2.36972 13.2861 2.36972 12.7139 2.41712 12.1446L0.430088 10.361C0.207524 10.161 0.0612395 9.89273 0.015388 9.60036C-0.0304636 9.308 0.0268598 9.00905 0.177893 8.7529L2.83257 4.2497C2.98353 3.99358 3.21914 3.79553 3.50052 3.68823C3.78189 3.58093 4.09221 3.5708 4.38025 3.6595L6.95131 4.4525C7.42915 4.1275 7.93487 3.8415 8.46448 3.5945L9.04851 1.0205L9.04984 1.0179ZM13 16.9C14.0561 16.9 15.0689 16.4891 15.8157 15.7577C16.5625 15.0263 16.982 14.0343 16.982 13C16.982 11.9657 16.5625 10.9737 15.8157 10.2423C15.0689 9.51089 14.0561 9.1 13 9.1C11.9439 9.1 10.9311 9.51089 10.1843 10.2423C9.43751 10.9737 9.01798 11.9657 9.01798 13C9.01798 14.0343 9.43751 15.0263 10.1843 15.7577C10.9311 16.4891 11.9439 16.9 13 16.9Z" fill="#2A3869"/>
</svg>
