<svg fill="#000000" xmlns="http://www.w3.org/2000/svg"  viewBox="0 0 48 48" width="24px" height="24px"><path d="M 26.998047 4 C 24.790047 4 23 5.7920469 23 7.9980469 C 23 10.208047 24.790047 12 26.998047 12 C 29.211047 12 31 10.208047 31 7.9980469 C 31 5.7920469 29.211047 4 26.998047 4 z M 24.111328 13.671875 C 23.871094 13.65983 23.628177 13.662853 23.384766 13.683594 C 22.735669 13.738904 22.080012 13.912986 21.453125 14.220703 A 2.0002 2.0002 0 0 0 21.425781 14.234375 L 14.591797 17.71875 A 2.0002 2.0002 0 0 0 13.9375 18.25 L 9.9375 23.25 A 2.0009763 2.0009763 0 1 0 13.0625 25.75 L 16.792969 21.085938 L 16.9375 21.011719 L 19.222656 20.398438 L 18.103516 26.121094 C 18.091588 26.17414 18.082059 26.227433 18.072266 26.28125 L 18.042969 26.435547 L 18.056641 26.439453 C 18.030585 26.623728 18 26.806639 18 26.998047 C 18 28.292855 18.625172 29.432551 19.578125 30.164062 L 19.574219 30.169922 L 25.589844 35.238281 L 29.619141 43.179688 L 29.626953 43.203125 A 2.0006723 2.0006723 0 1 0 33.373047 41.796875 L 30.373047 33.796875 A 2.0002 2.0002 0 0 0 29.914062 33.085938 L 29.759766 32.931641 L 25.917969 28.267578 L 27.097656 22.386719 L 28.988281 24.826172 L 28.992188 24.8125 A 2.0002 2.0002 0 0 0 29.605469 25.289062 L 35.605469 28.289062 A 2.0002321 2.0002321 0 0 0 37.394531 24.710938 L 31.900391 21.962891 L 28.208984 16.029297 C 27.354554 14.624888 25.792966 13.756188 24.111328 13.671875 z M 18.314453 31.792969 L 17.414062 36.085938 L 13.439453 40.732422 L 13.085938 41.085938 A 2.0002 2.0002 0 1 0 15.914062 43.914062 L 20.914062 38.914062 A 2.0002 2.0002 0 0 0 21.402344 38.150391 L 23.005859 35.287109 L 18.314453 31.792969 z"/></svg>